<svg xmlns="http://www.w3.org/2000/svg" width="79.711" height="33.019" viewBox="0 0 79.711 33.019"><defs><style>.a{fill:#ff6a13;}.b{fill:#fff;}</style></defs><g transform="translate(0 0)"><path class="a" d="M80.817,5.939A3.537,3.537,0,1,0,75.393,1.4L67.2,11.17l4.622,5.508Z" transform="translate(-48.601 -0.099)"/><path class="a" d="M71.794,59.7,67.2,65.18l8.109,9.659A3.537,3.537,0,0,0,80.734,70.3Z" transform="translate(-48.601 -43.177)"/><path class="a" d="M32.4,0h-.5L45.794,16.523,32.038,32.908h.5L46.292,16.523Z" transform="translate(-23.071 0)"/><path class="a" d="M21.726,0H21.2L35.122,16.523,21.338,32.908h.5L35.62,16.523Z" transform="translate(-15.332 0)"/><path class="a" d="M11.1,0h-.5L24.522,16.523,10.738,32.908h.5L25.02,16.523Z" transform="translate(-7.666 0)"/><path class="a" d="M.5,0H0L13.922,16.523.138,32.908h.5L14.42,16.523Z" transform="translate(0 0)"/><path class="b" d="M171.505,11.071C171.311,5.729,167.52.886,162.067.3c-3.958-.415-7.307.692-9.825,3.9-.277.36-.554.747-.83,1.135-3.238-6.283-13.036-6.836-17.077-1.329A3.749,3.749,0,0,0,130.709,0,3.665,3.665,0,0,0,127,3.764v25.6a3.653,3.653,0,0,0,7.307,0s.028-15.527.028-15.721c.028-3.349,1.937-6.587,5.591-6.587,3.93-.028,5.591,3.183,5.619,6.67.055,4.124.055,15.638.055,15.638a3.653,3.653,0,1,0,7.307,0s.028-11.431.055-15.555c.028-3.349,1.716-6.643,5.452-6.753,4.041-.111,5.785,3.155,5.812,6.753.028,2.38.028,15.527.028,15.527a3.653,3.653,0,0,0,7.307,0c-.028.028.028-15.8-.055-18.267" transform="translate(-91.85)"/></g></svg>